<svg width="154" height="137" viewBox="0 0 154 137" fill="none" xmlns="http://www.w3.org/2000/svg">
<g clip-path="url(#clip0_3_28)">
<path d="M113.158 4.93265C124.299 11.7603 120.367 35.3591 119.753 38.6646L119.875 38.7188C121.104 36.6325 128.108 25.4157 135.767 30.1029C141.091 33.3542 142.935 49.8002 143.221 52.7534L147.768 55.4899C153.297 26.3098 145.064 6.93758 126.06 0.814355C118.811 -1.51572 108.203 1.22076 101.813 8.53613C105.254 4.85135 109.267 2.54839 113.158 4.93265" fill="#FCB131"/>
<path d="M143.262 52.7805C138.716 52.8618 113.363 53.1598 108.039 49.9086C100.38 45.2213 116.845 39.7212 119.916 38.7459L119.794 38.6917C114.797 39.369 79.4505 43.7853 68.2692 36.9576C64.0506 34.3566 68.1053 31.3221 74.1261 28.6669C62.9857 33.1374 59.791 40.2631 64.0506 45.0317C74.7404 57.0614 104.107 61.3693 147.768 55.4899L143.262 52.7805V52.7805Z" fill="#006FB0"/>
<path d="M93.0484 22.6249L119.712 38.6375C119.957 35.3862 121.063 14.0362 110.005 7.26268C101.199 1.87099 93.8676 19.9155 92.8846 22.5166L93.0484 22.6249" fill="#00A261"/>
<path d="M143.18 52.7534C142.73 50.0711 140.272 36.9848 132.572 32.4601C124.913 27.9354 120.613 36.8222 119.794 38.7188L143.18 52.7534Z" fill="#00A261"/>
<path d="M119.876 38.7188C117.049 39.3961 103.902 42.9183 111.315 47.6327C118.729 52.347 139.126 52.7264 143.221 52.7534L119.876 38.7188Z" fill="#A6CE39"/>
<path d="M93.0894 22.6521C93.0075 22.625 92.9665 22.5437 92.8846 22.5166C89.0755 23.3294 62.7399 29.2901 71.5458 34.6818C82.6043 41.4553 114.797 39.071 119.712 38.6646L93.0894 22.6521Z" fill="#A6CE39"/>
<path d="M0.361709 70.4728C0.361709 68.1157 0.279794 66.5713 0.156921 65.1895H6.66915L6.9149 68.1428H7.11969C8.34841 65.8127 11.3383 64.8373 13.6729 64.8373C14.3692 64.8373 14.6968 64.8373 15.2702 64.8915V69.6329C14.7378 69.5246 14.0825 69.4704 13.2223 69.4704C10.4372 69.4704 8.55321 70.4458 8.06172 71.9901C7.9798 72.3152 7.89788 72.7216 7.89788 73.101V81.2562H0.361709V70.4728Z" fill="#006FB0"/>
<path d="M58.0707 73.0468C58.0707 78.9262 51.7633 81.6085 45.2511 81.6085C38.1654 81.6085 32.6771 78.5198 32.6771 73.3448C32.6771 68.1699 37.8378 64.8373 45.6197 64.8373C53.1149 64.8373 58.0707 68.197 58.0707 73.0468ZM40.5 73.2094C40.5 75.9729 42.2202 78.0321 45.4559 78.0321C48.3638 78.0321 50.2888 76.0813 50.2888 73.2094C50.2888 70.8251 48.8963 68.3866 45.4559 68.3866C41.8106 68.3866 40.5 70.8522 40.5 73.2094" fill="#006FB0"/>
<path d="M108.162 73.0468C108.162 78.9262 101.854 81.6085 95.342 81.6085C88.2564 81.6085 82.7681 78.5198 82.7681 73.3448C82.7681 68.1699 87.9287 64.8373 95.7106 64.8373C103.206 64.8373 108.162 68.197 108.162 73.0468ZM90.591 73.2094C90.591 75.9729 92.3112 78.0321 95.5468 78.0321C98.4548 78.0321 100.38 76.0813 100.38 73.2094C100.38 70.8251 98.9872 68.3866 95.5468 68.3866C91.9425 68.3866 90.591 70.8522 90.591 73.2094Z" fill="#A6CE39"/>
<path d="M147.399 63.9974H147.358C140.559 64.0787 135.194 65.325 130.975 67.8176C126.429 70.5541 124.135 74.6453 124.135 79.3868C124.135 84.8597 128.108 90.712 139.945 90.712C148.382 90.712 153.993 86.7563 153.993 81.473C153.993 75.8375 148.587 73.2635 142.894 73.2635C139.658 73.2635 136.34 73.7512 134.415 74.8079L134.293 74.8892C133.965 75.0517 132.941 74.9975 133.187 74.3744L133.351 74.0492C134.989 70.4999 139.781 68.5763 147.522 68.3324H150.02V64.0245C149.324 63.9703 148.546 63.9432 147.399 63.9974ZM132.982 81.5001V81.4459C132.982 80.5789 133.064 80.0099 133.391 79.5222C134.293 78.0592 136.545 77.0838 139.126 77.0838C143.713 77.0838 145.351 79.6577 145.351 81.8794C145.351 84.7243 143.098 86.7021 139.863 86.7021C135.112 86.7021 133.187 83.8843 132.982 81.5001" fill="#FCB131"/>
<path d="M61.675 81.2021V78.5198L64.9926 76.569C69.9074 73.7512 72.3649 72.0985 72.4058 70.4458C72.4058 69.2807 71.259 68.495 68.8016 68.495C66.7947 68.495 64.9926 69.1723 63.641 69.7684L61.8388 66.5984C63.6819 65.7043 66.7537 64.9457 70.1942 64.9457C75.8053 64.9457 79.0819 66.9506 79.0819 70.0935C79.0819 72.6404 76.3378 74.6995 73.4707 76.2439L71.0952 77.4902V77.5444H79.5324V81.175H61.675V81.2021Z" fill="#A6CE39"/>
<path d="M27.6803 64.3767V81.3104H20.9633V67.5467L27.6803 64.3767Z" fill="#006FB0"/>
<path d="M20.7585 60.99C20.7585 59.7708 22.1921 58.7683 24.4038 58.7683C26.5335 58.7683 27.9671 59.7708 27.8851 60.99C27.9261 62.2905 26.4926 63.2388 24.3628 63.2388C22.1921 63.2388 20.7995 62.2905 20.7585 60.99" fill="#FCB131"/>
<path d="M112.053 87.7317C112.053 86.3228 113.691 85.1849 116.23 85.1849C118.647 85.1849 120.285 86.3228 120.244 87.7317C120.285 89.1948 118.688 90.3056 116.189 90.3056C113.691 90.3327 112.135 89.2219 112.053 87.7317Z" fill="#006FB0"/>
<path d="M112.626 64.3767V84.2095C113.445 83.776 119.466 80.5518 119.671 80.4434V64.3767H112.626V64.3767Z" fill="#FCB131"/>
<path d="M3.10587 90.0618C2.45055 90.0618 1.87714 89.9263 1.46757 89.6554C1.01704 89.3844 0.812247 89.0322 0.812247 88.5987C0.812247 88.1652 1.01704 87.813 1.46757 87.515C1.9181 87.2169 2.40959 87.0814 3.06491 87.0814C3.67927 87.0814 4.29363 87.1898 4.94895 87.4066L5.1947 87.4878V86.9189L5.11278 86.8918C4.4165 86.675 3.76119 86.5667 3.10587 86.5667C2.28672 86.5667 1.54948 86.7563 0.935114 87.1356C0.320752 87.5149 0.0340576 87.9755 0.0340576 88.5445C0.0340576 89.1135 0.320752 89.5741 0.935114 89.9534C1.50852 90.3327 2.24576 90.5224 3.14683 90.5224C3.8431 90.5224 4.49842 90.414 5.15374 90.1702L5.23565 90.1431V89.5741L4.98991 89.6554C4.29363 89.9263 3.63831 90.0618 3.10587 90.0618" fill="black"/>
<path d="M11.7889 86.675L11.7479 86.6208H11.2564L11.2155 86.675L8.6761 90.3327L8.55322 90.4953H9.37237L9.41333 90.4411L10.2325 89.2489H12.6899L13.5091 90.4411L13.55 90.4953H14.3692L14.2463 90.3327L11.7889 86.675ZM10.6011 88.7884L11.5022 87.4607L12.4442 88.7884H10.6011Z" fill="black"/>
<path d="M22.5606 86.6208H22.3968V89.6283L18.5058 86.675L18.4649 86.6479H17.8915V90.4953H18.6287V87.5149L22.5197 90.4411L22.5606 90.4682H23.175V86.6208H22.5606Z" fill="black"/>
<path d="M29.4415 86.6208H27.3527V90.4682H29.5234C30.5064 90.4682 31.2846 90.2785 31.817 89.9263C32.3495 89.5741 32.6362 89.0864 32.6362 88.5445C32.6362 87.9755 32.3495 87.5149 31.817 87.1627C31.2436 86.8105 30.4245 86.6208 29.4415 86.6208V86.6208ZM28.0899 90.0347V87.0814H29.4415C30.1378 87.0814 30.7112 87.2169 31.1208 87.4878C31.5303 87.7588 31.7761 88.111 31.7761 88.5445C31.7761 89.0051 31.5713 89.3302 31.1208 89.6012C30.6702 89.8721 30.1378 90.0076 29.4415 90.0076L28.0899 90.0347Z" fill="black"/>
<path d="M36.691 86.6208H36.5272V90.4682H37.2644V86.6208H36.691Z" fill="black"/>
<path d="M43.5308 86.6208H41.442V90.4682H43.6128C44.5957 90.4682 45.3739 90.2785 45.9064 89.9263C46.4388 89.5741 46.7255 89.0864 46.7255 88.5445C46.7255 87.9755 46.4388 87.5149 45.9064 87.1627C45.333 86.8105 44.5138 86.6208 43.5308 86.6208ZM45.2511 87.4878C45.7016 87.7588 45.9064 88.111 45.9064 88.5445C45.9064 89.0051 45.7016 89.3302 45.2511 89.6012C44.8005 89.8721 44.2681 90.0076 43.5718 90.0076H42.1792V87.0543H43.5308C44.2271 87.0814 44.8005 87.2169 45.2511 87.4878Z" fill="black"/>
<path d="M52.7872 86.675L52.7463 86.6208H52.2957L52.2548 86.675L49.7154 90.3327L49.5925 90.4953H50.4117L50.4527 90.4411L51.2718 89.2489H53.7293L54.5484 90.4411L54.5893 90.4953H55.4085L55.2856 90.3327L52.7872 86.675ZM51.5995 88.7884L52.5005 87.4607L53.4425 88.7884H51.5995Z" fill="black"/>
<path d="M57.6612 86.6208H57.4974V87.0814H59.5453V90.4682H60.2825V87.0814H62.3304V86.6208H57.6612V86.6208Z" fill="black"/>
<path d="M66.7128 90.0347V88.7884H69.2112V88.3278H66.7128V87.1085H69.2931V86.6479H65.9346V90.4953H69.334V90.0347H66.7128Z" fill="black"/>
<path d="M81.4165 90.0618C80.7612 90.0618 80.1878 89.9263 79.7782 89.6554C79.3276 89.3844 79.1229 89.0322 79.1229 88.5987C79.1229 88.1652 79.3276 87.813 79.7782 87.515C80.2287 87.2169 80.7202 87.0814 81.3755 87.0814C81.9899 87.0814 82.6043 87.1898 83.2596 87.4066L83.5053 87.4878V86.9189L83.4234 86.8918C82.7271 86.675 82.0718 86.5667 81.4165 86.5667C80.5973 86.5667 79.8601 86.7563 79.2457 87.1356C78.6314 87.5149 78.3447 87.9755 78.3447 88.5445C78.3447 89.1135 78.6314 89.5741 79.2457 89.9534C79.8191 90.3327 80.5564 90.5224 81.4575 90.5224C82.1537 90.5224 82.809 90.414 83.4644 90.1702L83.5463 90.1431V89.5741L83.3006 89.6554C82.6043 89.9263 81.9899 90.0618 81.4165 90.0618Z" fill="black"/>
<path d="M87.4373 86.6208H87.2325V90.4682H87.9697V86.6208H87.4373Z" fill="black"/>
<path d="M91.7378 86.6208H91.5739V87.0814H93.6218V90.4682H94.359V87.0814H96.4069V86.6208H91.7378Z" fill="black"/>
<path d="M104.598 86.6208H103.615L103.574 86.6479L101.854 87.9755L100.134 86.6479L100.093 86.6208H99.1101L99.3558 86.8105L101.445 88.409V90.4682H102.182V90.3598L102.141 88.4903L104.271 86.8105L104.598 86.6208Z" fill="black"/>
<path d="M72.3649 126.015C71.4639 131.055 65.0336 134.984 57.2107 134.984C48.8554 134.984 42.0564 130.486 42.0564 124.877C42.0564 120.624 46.0293 116.993 51.6405 115.53C51.8452 114.988 51.9272 114.446 51.9272 113.85V113.39C44.391 114.88 38.9846 119.513 38.9846 124.905C38.9846 131.624 47.1352 137.016 57.2107 137.016C66.5899 137.016 74.2899 132.382 75.3139 126.368C74.2899 126.286 73.266 126.232 72.3649 126.015" fill="#FCB131"/>
<path d="M56.3915 114.853H57.2106C64.542 114.853 70.6447 118.294 72.0782 122.791C73.184 123.062 74.208 123.252 75.3138 123.333C74.208 117.4 66.467 112.821 57.2106 112.821H56.3915C56.4734 113.146 56.4734 113.498 56.4734 113.823C56.4734 114.175 56.4734 114.501 56.3915 114.853" fill="#FCB131"/>
<path d="M38.1654 124.877C38.1654 124.552 38.1654 124.2 38.2474 123.875H37.4282C28.991 123.875 22.1511 119.377 22.1511 113.85C22.1511 108.269 28.95 103.744 37.4282 103.744C45.7835 103.744 52.5825 108.242 52.5825 113.85C52.5825 118.104 48.6096 121.735 42.9165 123.225C42.8346 123.767 42.7117 124.363 42.7117 124.905V125.446C50.2479 123.902 55.6543 119.323 55.6543 113.877C55.6543 107.212 47.5037 101.766 37.4282 101.766C27.2298 101.766 19.1202 107.212 19.1202 113.877C19.1202 120.542 27.2708 125.934 37.4282 125.934H38.2474C38.1654 125.555 38.1654 125.23 38.1654 124.877Z" fill="#0081C4"/>
<path d="M61.8798 112.685C62.7808 107.646 69.2111 103.744 77.034 103.744C85.3893 103.744 92.1883 108.242 92.1883 113.85C92.1883 118.104 88.2154 121.735 82.6042 123.225C82.3995 123.767 82.3175 124.363 82.3175 124.905V125.446C89.8537 123.902 95.2601 119.323 95.2601 113.877C95.2601 107.212 87.1096 101.766 77.034 101.766C67.6548 101.766 59.9548 106.399 58.9308 112.414C59.9548 112.414 60.9787 112.55 61.8798 112.685" fill="black"/>
<path d="M77.7713 124.877C77.7713 124.552 77.7713 124.2 77.8941 123.875H77.075C69.7436 123.875 63.641 120.515 62.1255 115.936C61.1016 115.666 60.0777 115.53 58.9718 115.395C60.0777 121.328 67.8186 125.907 77.075 125.907H77.8941C77.7713 125.555 77.7713 125.23 77.7713 124.877Z" fill="black"/>
<path d="M111.971 126.015C111.07 131.055 104.639 134.984 96.8165 134.984C88.4612 134.984 81.6623 130.486 81.6623 124.877C81.6623 120.624 85.6351 116.993 91.2463 115.53C91.4511 114.988 91.574 114.446 91.574 113.85V113.39C84.0378 114.88 78.6314 119.513 78.6314 124.905C78.6314 131.624 86.7819 137.016 96.8575 137.016C106.237 137.016 113.937 132.382 114.961 126.368C113.896 126.286 112.872 126.232 111.971 126.015" fill="#00A261"/>
<path d="M96.0793 113.823C96.0793 114.175 96.0793 114.501 95.9974 114.826H96.8165C104.148 114.826 110.251 118.267 111.766 122.845C112.79 123.062 113.814 123.252 114.92 123.333C113.814 117.4 106.073 112.821 96.8165 112.821H95.9974C96.0793 113.173 96.0793 113.498 96.0793 113.823" fill="#00A261"/>
<path d="M116.64 101.712C107.261 101.712 99.5606 106.345 98.5367 112.36C99.5606 112.414 100.585 112.55 101.486 112.685C102.387 107.646 108.817 103.744 116.64 103.744C124.995 103.744 131.794 108.242 131.794 113.85C131.794 119.377 124.995 123.875 116.64 123.875C109.309 123.875 103.206 120.515 101.69 115.936C100.666 115.666 99.6425 115.53 98.5367 115.395C99.6425 121.328 107.383 125.907 116.64 125.907C126.715 125.907 134.866 120.515 134.866 113.85C134.866 107.158 126.715 101.712 116.64 101.712Z" fill="#EE334E"/>
</g>
<defs>
<clipPath id="clip0_3_28">
<rect width="154" height="137" fill="white"/>
</clipPath>
</defs>
</svg>
